<?xml version="1.0" encoding="UTF-8"?>
<!DOCTYPE svg PUBLIC "-//W3C//DTD SVG 1.1//EN" "http://www.w3.org/Graphics/SVG/1.1/DTD/svg11.dtd">
<svg xmlns="http://www.w3.org/2000/svg" version="1.1" width="417px" height="492px" style="shape-rendering:geometricPrecision; text-rendering:geometricPrecision; image-rendering:optimizeQuality; fill-rule:evenodd; clip-rule:evenodd" xmlns:xlink="http://www.w3.org/1999/xlink">
<g><path style="opacity:0.995" fill="#49dd7f" d="M 230.5,491.5 C 218.833,491.5 207.167,491.5 195.5,491.5C 165.456,490.421 135.789,485.921 106.5,478C 50.3328,461.166 16.4995,423.999 5,366.5C 2.53253,352.433 0.699201,338.433 -0.5,324.5C -0.5,268.167 -0.5,211.833 -0.5,155.5C 5.42959,89.3802 39.4296,44.2135 101.5,20C 134.74,7.84615 169.074,2.34615 204.5,3.5C 249.705,1.83993 292.372,11.3399 332.5,32C 381.611,62.2115 408.111,106.378 412,164.5C 413.338,189.941 412.338,215.275 409,240.5C 405.515,266.969 391.348,284.803 366.5,294C 356.393,297.155 346.059,299.155 335.5,300C 266.167,300.5 196.834,300.667 127.5,300.5C 124.845,362.342 154.345,393.342 216,393.5C 242.216,394.526 266.716,388.693 289.5,376C 300.923,368.411 311.923,360.245 322.5,351.5C 348.615,374.112 374.281,397.278 399.5,421C 375.463,449.366 345.463,468.699 309.5,479C 283.488,486.119 257.154,490.285 230.5,491.5 Z M 198.5,228.5 C 177.167,228.5 155.833,228.5 134.5,228.5C 134.5,198.5 134.5,168.5 134.5,138.5C 138.028,108.277 154.695,90.1098 184.5,84C 210.167,83.3333 235.833,83.3333 261.5,84C 270.667,86.5 276.5,92.3333 279,101.5C 279.667,119.5 279.667,137.5 279,155.5C 270.37,199.965 243.537,224.299 198.5,228.5 Z"/></g>
<g><path style="opacity:0.252" fill="#4bdf7e" d="M 134.5,138.5 C 134.5,168.5 134.5,198.5 134.5,228.5C 155.833,228.5 177.167,228.5 198.5,228.5C 177.006,229.497 155.34,229.831 133.5,229.5C 133.169,198.995 133.502,168.662 134.5,138.5 Z"/></g>
</svg>
